<svg xmlns="http://www.w3.org/2000/svg" viewBox="0 0 127.8 48.7" style="enable-background:new 0 0 127.8 48.7" xml:space="preserve"><path d="M0 2.5v43.8c0 1.3 1.1 2.4 2.4 2.4h34.5c1.3 0 2.4-1.1 2.4-2.4v-8.4c0-1.3-1.1-2.4-2.4-2.4H17.3c-1.3 0-2.4-1.1-2.4-2.4 0-1.3 1.1-2.4 2.4-2.4h14.8c1.3 0 2.4-1.1 2.4-2.4v-7.7c0-1.3-1.1-2.4-2.4-2.4H17.5c-1.3 0-2.4-1.1-2.4-2.4v-.3c0-1.3 1.1-2.4 2.4-2.4h20.8c.6 0 1.3.3 1.7.7l15.4 15.6c.4.4.7 1.1.7 1.7v15.3c0 1.3 1.1 2.4 2.4 2.4h10.6c1.3 0 2.4-1.1 2.4-2.4v-15c0-.6.3-1.3.7-1.7l12-11.9c.9-.9 2.5-.9 3.4 0 .4.5.7 1.1.7 1.7v26.8c0 1.3 1.1 2.4 2.4 2.4h34.7c1.3 0 2.4-1.1 2.4-2.4v-8.5c0-1.3-1.1-2.4-2.4-2.4H106c-1.3 0-2.4-1.1-2.4-2.4 0-1.3 1.1-2.4 2.4-2.4h14.6c1.3 0 2.4-1.1 2.4-2.4v-7.4c0-1.3-1.1-2.4-2.4-2.4H106c-1.3 0-2.4-1.1-2.4-2.4v-.5c0-1.3 1.1-2.4 2.4-2.4h19.4c1.3 0 2.4-1.1 2.4-2.4V2.5c0-1.3-1.1-2.4-2.4-2.4H94.3c-3 0-9.1-.8-12.7 2.7-4.8 4.8-10.7 13.9-21.8 16.4-.2 0-.3-.1-.3-.2s0-.2.1-.2c3.2-3.8 5.7-8.2 7.3-12.9.7-2.4-.6-4.9-3-5.6-.4-.1-.9-.2-1.3-.2H2.4C1.1.1 0 1.2 0 2.5z" style="fill:#ea580c"/></svg>